<svg width="168" height="168" viewBox="0 0 168 168" fill="none" xmlns="http://www.w3.org/2000/svg">
<path d="M79.9417 22.1061C80.7041 17.5202 87.2961 17.5202 88.0585 22.1061L93.1564 52.7715C93.6557 55.7747 97.1308 57.2142 99.6075 55.4436L124.896 37.3647C128.678 34.6611 133.339 39.3223 130.635 43.1041L112.556 68.3926C110.786 70.8693 112.225 74.3444 115.229 74.8436L145.894 79.9416C150.48 80.704 150.48 87.296 145.894 88.0584L115.229 93.1564C112.225 93.6556 110.786 97.1307 112.556 99.6074L130.635 124.896C133.339 128.678 128.678 133.339 124.896 130.635L99.6075 112.556C97.1308 110.786 93.6557 112.225 93.1564 115.229L88.0585 145.894C87.2961 150.48 80.7041 150.48 79.9417 145.894L74.8437 115.229C74.3445 112.225 70.8694 110.786 68.3927 112.556L43.1042 130.635C39.3224 133.339 34.6611 128.678 37.3648 124.896L55.4437 99.6074C57.2142 97.1307 55.7748 93.6556 52.7716 93.1564L22.1061 88.0584C17.5203 87.296 17.5203 80.704 22.1061 79.9416L52.7716 74.8436C55.7748 74.3444 57.2142 70.8693 55.4437 68.3926L37.3648 43.1041C34.6611 39.3223 39.3224 34.6611 43.1042 37.3647L68.3927 55.4436C70.8694 57.2142 74.3444 55.7747 74.8437 52.7715L79.9417 22.1061Z" fill="#14B1AB"/>
</svg>
