<svg width="168" height="168" viewBox="0 0 168 168" fill="none" xmlns="http://www.w3.org/2000/svg">
<path d="M149.333 119C149.333 110.42 147.644 101.925 144.36 93.998C141.077 86.0714 136.264 78.8691 130.198 72.8024C124.131 66.7356 116.929 61.9232 109.002 58.6399C101.075 55.3566 92.5798 53.6667 84.0001 53.6667C75.4204 53.6667 66.9247 55.3566 58.9981 58.6399C51.0715 61.9232 43.8692 66.7356 37.8024 72.8024C31.7357 78.8691 26.9233 86.0714 23.6399 93.998C20.3566 101.925 18.6667 110.42 18.6667 119H44.8001C44.8001 113.852 45.814 108.755 47.784 103.999C49.754 99.2428 52.6414 94.9215 56.2815 91.2814C59.9215 87.6414 64.2429 84.7539 68.9989 82.7839C73.7548 80.8139 78.8523 79.8 84.0001 79.8C89.1479 79.8 94.2453 80.8139 99.0013 82.7839C103.757 84.7539 108.079 87.6414 111.719 91.2814C115.359 94.9215 118.246 99.2428 120.216 103.999C122.186 108.755 123.2 113.852 123.2 119H149.333Z" fill="#E8505B"/>
</svg>
